<svg width="18" height="18" viewBox="0 0 18 18" fill="none" xmlns="http://www.w3.org/2000/svg">
<path d="M17.3021 13.9331L12.3691 9.0001L17.3021 4.06711C18.2324 3.13682 18.2324 1.62841 17.3021 0.698118C16.3718 -0.232177 14.8634 -0.232177 13.9331 0.698118L8.9997 5.6311L4.06672 0.697721C3.13602 -0.232574 1.62762 -0.232574 0.697721 0.697721C-0.232574 1.62841 -0.232574 3.13682 0.697721 4.06672L5.6311 8.9997L0.697721 13.9327C-0.232574 14.8634 -0.232574 16.3718 0.697721 17.3017C1.16346 17.767 1.77254 17.9993 2.38242 17.9993C2.99189 17.9993 3.60177 17.7666 4.06711 17.3017L8.9997 12.3691L13.9331 17.3021C14.3988 17.767 15.0079 17.9997 15.6178 17.9997C16.2277 17.9997 16.8371 17.767 17.3025 17.3021C18.2324 16.3718 18.2324 14.8638 17.3021 13.9331Z" fill="#B3B6BD"/>
</svg>
