<svg width="10" height="10" viewBox="0 0 10 10" fill="none" xmlns="http://www.w3.org/2000/svg">
<g clip-path="url(#clip0_198_41)">
<path d="M9.31882 6.65028C8.81085 6.24206 8.34489 6.04361 7.89428 6.04361C7.24243 6.04361 6.77309 6.45827 6.34816 6.88306C6.2993 6.93196 6.24013 6.95475 6.16199 6.95475C5.80393 6.95479 5.174 6.50637 4.28972 5.62199C3.24942 4.58162 2.8561 3.91991 3.12058 3.65533C3.83755 2.9386 4.06137 2.2201 2.96364 0.854899C2.57067 0.365792 2.18618 0.128078 1.78823 0.128078C1.25154 0.128078 0.843567 0.557077 0.48362 0.93561C0.42139 1.00104 0.362605 1.06286 0.304969 1.12049C-0.101859 1.52728 -0.101651 2.41459 0.305561 3.49415C0.752345 4.67865 1.6345 5.96718 2.78955 7.12241C3.68281 8.01559 4.65472 8.73743 5.60028 9.22209C6.42581 9.64524 7.22655 9.87195 7.85502 9.87195C7.85509 9.87195 7.85516 9.87195 7.85526 9.87195C8.24855 9.87195 8.56802 9.78616 8.77901 9.61169C9.20759 9.25734 10.0053 8.601 9.99998 7.82138C9.99706 7.40324 9.76794 7.01138 9.31882 6.65028Z" fill="#B3B6BD"/>
</g>
<defs>
<clipPath id="clip0_198_41">
<rect width="10" height="10" fill="white"/>
</clipPath>
</defs>
</svg>
