<svg width="25" height="20" viewBox="0 0 25 20" fill="none" xmlns="http://www.w3.org/2000/svg">
<g clip-path="url(#clip0_80_239)">
<path d="M15 2.14286V11.6667H21.3119L21.4721 10.7143H23V6.98335C23 6.71085 22.9352 6.44578 22.8123 6.21675L20.498 1.88709C20.424 1.74898 20.298 1.66667 20.1607 1.66667H15.4C15.1797 1.66667 15 1.87988 15 2.14286ZM15.8 2.61905H20.0217L22.2 6.76804V8.80953H15.8V2.61905ZM15.8 9.76191H18.2V10.7143H15.8V9.76191Z" fill="#B3B6BD"/>
<path d="M8 17.5C8 17.9602 7.77612 18.3333 7.5 18.3333C7.22388 18.3333 7 17.9602 7 17.5C7 17.0398 7.22388 16.6667 7.5 16.6667C7.77612 16.6667 8 17.0398 8 17.5Z" fill="#B3B6BD"/>
<path d="M7.5 14.1667C6.12122 14.1667 5 15.4748 5 17.0833C5 18.6919 6.12122 20 7.5 20C8.87878 20 10 18.6919 10 17.0833C10 15.4748 8.87878 14.1667 7.5 14.1667ZM7.5 19.0278C6.58081 19.0278 5.83333 18.1557 5.83333 17.0833C5.83333 16.0109 6.58081 15.1389 7.5 15.1389C8.41919 15.1389 9.16667 16.0109 9.16667 17.0833C9.16667 18.1557 8.41919 19.0278 7.5 19.0278Z" fill="#B3B6BD"/>
<path d="M2 16.6667V18.3333H4C3.94699 18.0662 3.91596 17.7883 3.91596 17.5C3.91596 17.2117 3.94699 16.9338 4 16.6667H2Z" fill="#B3B6BD"/>
<path d="M17 0.833333V0H4.21871L4 0.833333H17Z" fill="#B3B6BD"/>
<path d="M4.06293 11.6667H13.9268V2.14286C13.9268 1.97522 13.9554 1.81618 14 1.66667H5.51476L5.37655 2.61905H2V3.57143H5.23853L4.9619 5.47619H2V6.42857H4.8235L4.54668 8.33333H2V9.28572H4.40885L4.06293 11.6667Z" fill="#B3B6BD"/>
<path d="M11 16.6667C11.0584 16.9338 11.0926 17.2117 11.0926 17.5C11.0926 17.7883 11.0584 18.0662 11 18.3333H14C13.9413 18.0662 13.9071 17.7883 13.9071 17.5C13.9071 17.2117 13.9413 16.9338 13.9997 16.6667H11Z" fill="#B3B6BD"/>
<path d="M21 12.5H3.29836L3 15H4.96927C5.52073 14.0053 6.54616 13.3333 7.72134 13.3333C8.89653 13.3333 9.92215 14.0053 10.4734 15H14.5172C15.0687 14.0053 16.0941 13.3333 17.2693 13.3333C18.4445 13.3333 19.4701 14.0053 20.0214 15H20.5239L21 12.5Z" fill="#B3B6BD"/>
<path d="M17.5 14.1667C16.1212 14.1667 15 15.4748 15 17.0833C15 18.6919 16.1212 20 17.5 20C18.8788 20 20 18.6919 20 17.0833C20 15.4748 18.8788 14.1667 17.5 14.1667ZM17.5 19.0278C16.5808 19.0278 15.8333 18.1557 15.8333 17.0833C15.8333 16.0109 16.5808 15.1389 17.5 15.1389C18.4192 15.1389 19.1667 16.0109 19.1667 17.0833C19.1667 18.1557 18.4192 19.0278 17.5 19.0278Z" fill="#B3B6BD"/>
<path d="M23.6379 11.6667H22.4829L21.7565 16.4286H21C21.0603 16.7339 21.0956 17.0515 21.0956 17.381C21.0956 17.7104 21.0603 18.028 21 18.3333H22.9812L24 12.101C23.9837 11.8576 23.8275 11.6667 23.6379 11.6667Z" fill="#B3B6BD"/>
<path d="M17 3.33333V7.5H22V6.70699L20.1024 3.33333H17Z" fill="#B3B6BD"/>
<path d="M18 17.5C18 17.9602 17.7761 18.3333 17.5 18.3333C17.2239 18.3333 17 17.9602 17 17.5C17 17.0398 17.2239 16.6667 17.5 16.6667C17.7761 16.6667 18 17.0398 18 17.5Z" fill="#B3B6BD"/>
<path d="M0 2.5H1V3.33333H0V2.5Z" fill="#B3B6BD"/>
<path d="M0 5.83333H1V6.66667H0V5.83333Z" fill="#B3B6BD"/>
<path d="M0 8.33333H1V9.16667H0V8.33333Z" fill="#B3B6BD"/>
</g>
<defs>
<clipPath id="clip0_80_239">
<rect width="24" height="20" fill="white" transform="translate(0.0371094)"/>
</clipPath>
</defs>
</svg>
