<svg width="10" height="10" viewBox="0 0 10 10" fill="none" xmlns="http://www.w3.org/2000/svg">
<g clip-path="url(#clip0_198_43)">
<path d="M5 0C2.24298 0 0 2.24298 0 5C0 7.75702 2.24294 10 4.99996 10C7.75698 10 9.99996 7.75702 9.99996 5C9.99996 2.24298 7.75698 0 5 0ZM5 8.77718C2.91725 8.77718 1.22282 7.08275 1.22282 5C1.22282 2.91725 2.91725 1.22282 5 1.22282C7.08275 1.22282 8.77718 2.91725 8.77718 5C8.77718 7.08275 7.08271 8.77718 5 8.77718Z" fill="#B3B6BD"/>
<path d="M5.61149 4.44973H4.38867V7.66983H5.61149V4.44973Z" fill="#B3B6BD"/>
<path d="M5.61149 2.33017H4.38867V3.51223H5.61149V2.33017Z" fill="#B3B6BD"/>
</g>
<defs>
<clipPath id="clip0_198_43">
<rect width="10" height="10" fill="white"/>
</clipPath>
</defs>
</svg>
