<svg width="18" height="18" viewBox="0 0 18 18" fill="none" xmlns="http://www.w3.org/2000/svg">
<path fill-rule="evenodd" clip-rule="evenodd" d="M11.4922 0.784085C12.5377 -0.261363 14.2327 -0.26136 15.2781 0.784086L17.2159 2.72188C18.2614 3.76733 18.2614 5.46233 17.2159 6.50778L10.4468 13.2769C10.2794 13.4443 10.0525 13.5383 9.81579 13.5383H5.35407C4.86124 13.5383 4.46172 13.1388 4.46172 12.6459V8.18421C4.46172 7.94754 4.55574 7.72057 4.72309 7.55322L11.4922 0.784085ZM14.0162 2.04605C13.6677 1.69757 13.1027 1.69757 12.7542 2.04605L6.24641 8.55383V11.7536H9.44617L15.9539 5.24581C16.3024 4.89733 16.3024 4.33233 15.954 3.98385L14.0162 2.04605L14.4812 1.58099L14.0162 2.04605ZM4.46172 1.93779C2.98324 1.93779 1.78469 3.13634 1.78469 4.61483V13.5383C1.78469 15.0168 2.98324 16.2153 4.46172 16.2153H13.3852C14.8637 16.2153 16.0622 15.0168 16.0622 13.5383V10.8612C16.0622 10.3684 16.4617 9.9689 16.9546 9.9689C17.4474 9.9689 17.8469 10.3684 17.8469 10.8612V13.5383C17.8469 16.0024 15.8493 18 13.3852 18H4.46172C1.99758 18 0 16.0024 0 13.5383V4.61483C0 2.15068 1.99758 0.153103 4.46172 0.153103H7.13876C7.63159 0.153103 8.0311 0.552619 8.0311 1.04545C8.0311 1.53828 7.63159 1.93779 7.13876 1.93779H4.46172Z" fill="#B3B6BD"/>
</svg>
