<svg width="28" height="29" viewBox="0 0 28 29" fill="none" xmlns="http://www.w3.org/2000/svg">
<path d="M23.8995 4.99649C21.2553 2.35226 17.7395 0.895996 14 0.895996C10.2605 0.895996 6.74472 2.35226 4.10049 4.99649C1.45627 7.64072 0 11.1565 0 14.896C0 18.6355 1.45627 22.1513 4.10049 24.7955C6.74472 27.4397 10.2605 28.896 14 28.896C17.7395 28.896 21.2553 27.4397 23.8995 24.7955C26.5437 22.1513 28 18.6355 28 14.896C28 11.1565 26.5437 7.64072 23.8995 4.99649ZM14 27.2575C7.18393 27.2575 1.63849 21.7121 1.63849 14.896C1.63849 8.07993 7.18393 2.53448 14 2.53448C20.8161 2.53448 26.3615 8.07993 26.3615 14.896C26.3615 21.7121 20.8161 27.2575 14 27.2575Z" fill="#B3B6BD"/>
<path d="M14.1847 7.46278C12.9367 7.41514 11.7548 7.86525 10.8569 8.72978C9.95862 9.59452 9.46387 10.7575 9.46387 12.0042H11.1024C11.1024 11.207 11.4187 10.4633 11.9934 9.91026C12.5674 9.35762 13.3232 9.06944 14.1226 9.1002C15.6299 9.15745 16.8552 10.3828 16.9125 11.8901C16.9503 12.8873 16.4842 13.8226 15.6653 14.3921C14.1149 15.4704 13.1892 17.2713 13.1892 19.2093H14.8277C14.8277 17.8075 15.4906 16.5095 16.601 15.7373C17.8804 14.8473 18.6091 13.3859 18.5499 11.828C18.4604 9.46977 16.5429 7.55229 14.1847 7.46278Z" fill="#B3B6BD"/>
<path d="M13.1807 20.4681H14.8192V22.1066H13.1807V20.4681Z" fill="#B3B6BD"/>
</svg>
