<svg width="29" height="30" viewBox="0 0 29 30" fill="none" xmlns="http://www.w3.org/2000/svg">
<path fill-rule="evenodd" clip-rule="evenodd" d="M3.59589 11.4197C2.83647 12.1031 2.40283 13.0768 2.40283 14.0985V23.3054C2.40283 25.2959 4.0164 26.9094 6.00684 26.9094H22.8255C24.816 26.9094 26.4295 25.2959 26.4295 23.3054V14.0985C26.4295 13.0768 25.9958 12.1031 25.2365 11.4197L16.8271 3.85125C15.4565 2.6177 13.3758 2.6177 12.0052 3.85126L3.59589 11.4197ZM13.2148 16.0974C11.8879 16.0974 10.8122 17.1731 10.8122 18.5001V23.3054C10.8122 23.9689 11.35 24.5068 12.0135 24.5068H16.8188C17.4823 24.5068 18.0202 23.9689 18.0202 23.3054V18.5001C18.0202 17.1731 16.9445 16.0974 15.6175 16.0974H13.2148Z" fill="#9E9E9E"/>
</svg>
