<svg width="25" height="28" viewBox="0 0 25 28" fill="none" xmlns="http://www.w3.org/2000/svg">
<path fill-rule="evenodd" clip-rule="evenodd" d="M11.7391 2.30281C9.39412 2.30281 7.49318 4.20375 7.49318 6.54869C7.49318 8.89362 9.39412 10.7946 11.7391 10.7946C14.084 10.7946 15.9849 8.89362 15.9849 6.54869C15.9849 4.20375 14.084 2.30281 11.7391 2.30281ZM5.69189 6.54869C5.69189 3.20893 8.3993 0.501526 11.7391 0.501526C15.0788 0.501526 17.7862 3.20893 17.7862 6.54869C17.7862 9.88844 15.0788 12.5958 11.7391 12.5958C8.3993 12.5958 5.69189 9.88844 5.69189 6.54869Z" fill="#B3B6BD"/>
<path fill-rule="evenodd" clip-rule="evenodd" d="M2.50451 20.4134C4.37453 18.4156 7.41583 16.9117 12.0827 16.9117C16.7495 16.9117 19.7908 18.4156 21.6609 20.4134C23.5073 22.3862 24.1341 24.7589 24.1341 26.3899C24.1341 26.8873 23.7309 27.2905 23.2335 27.2905H0.931891C0.434481 27.2905 0.03125 26.8873 0.03125 26.3899C0.03125 24.7589 0.658043 22.3862 2.50451 20.4134ZM1.90912 25.4892H22.2562C22.0688 24.3331 21.5145 22.893 20.3458 21.6444C18.8706 20.0683 16.3365 18.713 12.0827 18.713C7.8289 18.713 5.29481 20.0683 3.81959 21.6444C2.65082 22.893 2.09655 24.3331 1.90912 25.4892Z" fill="#B3B6BD"/>
</svg>
