<svg width="21" height="21" viewBox="0 0 21 21" fill="none" xmlns="http://www.w3.org/2000/svg">
<path fill-rule="evenodd" clip-rule="evenodd" d="M14.7505 6.64286H2.2495C1.55942 6.64286 1 7.12236 1 7.71386V16.2857C1 18.0609 2.67893 19.5 4.75 19.5H12.25C13.2446 19.5 14.1984 19.1614 14.9017 18.5586C15.6049 17.9558 16 17.1382 16 16.2857V7.71386C16 7.12236 15.4406 6.64286 14.7505 6.64286Z" stroke="#B3B6BD" stroke-width="1.5" stroke-linecap="round" stroke-linejoin="round"/>
<path d="M6.74951 10.9281C6.74951 10.5139 6.41373 10.1781 5.99951 10.1781C5.5853 10.1781 5.24951 10.5139 5.24951 10.9281H6.74951ZM5.24951 15.2134C5.24951 15.6276 5.5853 15.9634 5.99951 15.9634C6.41373 15.9634 6.74951 15.6276 6.74951 15.2134H5.24951ZM11.7505 10.9281C11.7505 10.5139 11.4147 10.1781 11.0005 10.1781C10.5863 10.1781 10.2505 10.5139 10.2505 10.9281H11.7505ZM10.2505 15.2134C10.2505 15.6276 10.5863 15.9634 11.0005 15.9634C11.4147 15.9634 11.7505 15.6276 11.7505 15.2134H10.2505ZM11.1431 2.25C11.5573 2.25 11.8931 1.91421 11.8931 1.5C11.8931 1.08579 11.5573 0.75 11.1431 0.75V2.25ZM6.14355 0.75C5.72934 0.75 5.39355 1.08579 5.39355 1.5C5.39355 1.91421 5.72934 2.25 6.14355 2.25V0.75ZM16 4.82143C16.4142 4.82143 16.75 4.48564 16.75 4.07143C16.75 3.65721 16.4142 3.32143 16 3.32143V4.82143ZM1 3.32143C0.585786 3.32143 0.25 3.65721 0.25 4.07143C0.25 4.48564 0.585786 4.82143 1 4.82143V3.32143ZM5.24951 10.9281V15.2134H6.74951V10.9281H5.24951ZM10.2505 10.9281V15.2134H11.7505V10.9281H10.2505ZM11.1431 0.75H6.14355V2.25H11.1431V0.75ZM16 3.32143H1V4.82143H16V3.32143Z" fill="#B3B6BD"/>
</svg>
