<svg width="33" height="33" viewBox="0 0 33 33" fill="none" xmlns="http://www.w3.org/2000/svg">
<path fill-rule="evenodd" clip-rule="evenodd" d="M25.3264 27.883C25.3264 25.307 23.2384 23.219 20.6624 23.219C18.2724 23.219 15.2264 23.219 12.8364 23.219C10.2604 23.219 8.17236 25.307 8.17236 27.883V30.896C8.17236 31.31 8.50836 31.646 8.92236 31.646H24.5764C24.9904 31.646 25.3264 31.31 25.3264 30.896V27.883ZM23.8264 27.883V30.146H9.67236V27.883C9.67236 26.136 11.0894 24.719 12.8364 24.719H20.6624C22.4094 24.719 23.8264 26.136 23.8264 27.883Z" fill="#B3B6BD"/>
<path fill-rule="evenodd" clip-rule="evenodd" d="M16.7494 12.877C14.1754 12.877 12.0864 14.966 12.0864 17.54C12.0864 20.114 14.1754 22.203 16.7494 22.203C19.3234 22.203 21.4124 20.114 21.4124 17.54C21.4124 14.966 19.3234 12.877 16.7494 12.877ZM16.7494 14.377C18.4954 14.377 19.9124 15.794 19.9124 17.54C19.9124 19.286 18.4954 20.703 16.7494 20.703C15.0034 20.703 13.5864 19.286 13.5864 17.54C13.5864 15.794 15.0034 14.377 16.7494 14.377Z" fill="#B3B6BD"/>
<path fill-rule="evenodd" clip-rule="evenodd" d="M17.3967 2.517C17.2627 2.287 17.0157 2.146 16.7497 2.146C16.4837 2.146 16.2367 2.287 16.1027 2.517L14.6477 5.002L11.8337 5.618C11.5737 5.675 11.3637 5.866 11.2807 6.119C11.1987 6.372 11.2567 6.65 11.4337 6.849L13.3477 9.001L13.0647 11.867C13.0377 12.132 13.1547 12.391 13.3697 12.548C13.5857 12.704 13.8677 12.735 14.1117 12.628L16.7497 11.473L19.3877 12.628C19.6317 12.735 19.9137 12.704 20.1297 12.548C20.3447 12.391 20.4617 12.132 20.4347 11.867L20.1517 9.001L22.0657 6.849C22.2427 6.65 22.3007 6.372 22.2187 6.119C22.1357 5.866 21.9257 5.675 21.6657 5.618L18.8517 5.002L17.3967 2.517ZM16.7497 4.38L17.7237 6.044C17.8297 6.224 18.0057 6.353 18.2107 6.397L20.0937 6.81L18.8127 8.25C18.6727 8.406 18.6057 8.614 18.6267 8.822L18.8157 10.74L17.0507 9.967C16.8587 9.883 16.6407 9.883 16.4487 9.967L14.6837 10.74L14.8727 8.822C14.8937 8.614 14.8267 8.406 14.6867 8.25L13.4057 6.81L15.2887 6.397C15.4937 6.353 15.6697 6.224 15.7757 6.044L16.7497 4.38Z" fill="#B3B6BD"/>
<path fill-rule="evenodd" clip-rule="evenodd" d="M26.3054 6.017C26.1714 5.787 25.9244 5.646 25.6584 5.646C25.3924 5.646 25.1454 5.787 25.0114 6.017L24.1234 7.533L22.4074 7.909C22.1474 7.966 21.9364 8.157 21.8544 8.41C21.7724 8.663 21.8304 8.941 22.0074 9.14L23.1744 10.453L23.0014 12.201C22.9754 12.466 23.0914 12.726 23.3074 12.882C23.5224 13.039 23.8054 13.069 24.0494 12.962L25.6584 12.257L27.2674 12.962C27.5114 13.069 27.7944 13.039 28.0094 12.882C28.2254 12.726 28.3414 12.466 28.3154 12.201L28.1424 10.453L29.3094 9.14C29.4864 8.941 29.5454 8.663 29.4624 8.41C29.3804 8.157 29.1704 7.966 28.9094 7.909L27.1934 7.533L26.3054 6.017ZM25.6584 7.88L26.0654 8.575C26.1704 8.755 26.3474 8.884 26.5514 8.928L27.3374 9.1L26.8034 9.702C26.6634 9.858 26.5964 10.065 26.6174 10.274L26.6964 11.074L25.9594 10.752C25.7674 10.668 25.5494 10.668 25.3574 10.752L24.6204 11.074L24.6994 10.274C24.7204 10.065 24.6534 9.858 24.5144 9.702L23.9794 9.1L24.7654 8.928C24.9694 8.884 25.1464 8.755 25.2524 8.575L25.6584 7.88Z" fill="#B3B6BD"/>
<path fill-rule="evenodd" clip-rule="evenodd" d="M8.48752 6.017C8.35352 5.787 8.10652 5.646 7.84052 5.646C7.57452 5.646 7.32752 5.787 7.19352 6.017L6.30552 7.533L4.58952 7.909C4.32852 7.966 4.11852 8.157 4.03652 8.41C3.95352 8.663 4.01252 8.941 4.18952 9.14L5.35652 10.453L5.18352 12.201C5.15752 12.466 5.27352 12.726 5.48952 12.882C5.70452 13.039 5.98752 13.069 6.23152 12.962L7.84052 12.257L9.44952 12.962C9.69352 13.069 9.97652 13.039 10.1915 12.882C10.4075 12.726 10.5235 12.466 10.4975 12.201L10.3245 10.453L11.4915 9.14C11.6685 8.941 11.7265 8.663 11.6445 8.41C11.5625 8.157 11.3515 7.966 11.0915 7.909L9.37552 7.533L8.48752 6.017ZM7.84052 7.88L8.24652 8.575C8.35252 8.755 8.52952 8.884 8.73352 8.928L9.51952 9.1L8.98452 9.702C8.84552 9.858 8.77852 10.065 8.79952 10.274L8.87852 11.074L8.14152 10.752C7.94952 10.668 7.73152 10.668 7.53952 10.752L6.80252 11.074L6.88152 10.274C6.90252 10.065 6.83552 9.858 6.69552 9.702L6.16152 9.1L6.94752 8.928C7.15152 8.884 7.32852 8.755 7.43352 8.575L7.84052 7.88Z" fill="#B3B6BD"/>
</svg>
