<svg width="24" height="24" viewBox="0 0 24 24" fill="none" xmlns="http://www.w3.org/2000/svg">
<path d="M22.7486 8.6262L17.1114 2.98046L14.2905 12.2626C14.2895 12.266 14.2882 12.2693 14.2871 12.2726C14.2838 12.2831 14.2802 12.2934 14.2765 12.3039C14.2727 12.3145 14.269 12.325 14.2649 12.3355C14.2616 12.3436 14.2583 12.3518 14.2549 12.3599C14.2495 12.3726 14.244 12.3851 14.2381 12.3974C14.2354 12.4033 14.2325 12.4093 14.2295 12.4151C14.2224 12.4294 14.215 12.4434 14.2073 12.4572C14.2049 12.4614 14.2026 12.4656 14.2002 12.4698C14.1915 12.4849 14.1824 12.4998 14.1729 12.5143C14.1709 12.5174 14.1689 12.5205 14.1668 12.5236C14.1565 12.539 14.1458 12.5541 14.1346 12.5689C14.133 12.5711 14.1314 12.5735 14.1297 12.5757C14.1175 12.5915 14.105 12.6069 14.0921 12.6218C14.091 12.6231 14.0901 12.6244 14.089 12.6256C14.075 12.6416 14.0605 12.6571 14.0457 12.672C14.0454 12.6722 14.0453 12.6724 14.0451 12.6726C14.0449 12.6729 14.0447 12.673 14.0445 12.6733C14.0296 12.6882 14.0141 12.7026 13.9981 12.7166C13.9968 12.7177 13.9955 12.7187 13.9943 12.7198C13.9794 12.7327 13.9641 12.7453 13.9484 12.7574C13.9461 12.7592 13.9437 12.7608 13.9414 12.7627C13.9267 12.7736 13.9118 12.7843 13.8964 12.7946C13.8933 12.7967 13.8899 12.7988 13.8868 12.8009C13.8724 12.8102 13.8579 12.8193 13.843 12.8279C13.8385 12.8306 13.834 12.833 13.8296 12.8356C13.8161 12.8431 13.8024 12.8504 13.7886 12.8573C13.7822 12.8604 13.776 12.8634 13.7697 12.8665C13.7578 12.8721 13.7458 12.8774 13.7335 12.8827C13.725 12.8863 13.7165 12.8898 13.708 12.8932C13.6979 12.8971 13.6877 12.9008 13.6776 12.9044C13.6669 12.9082 13.6562 12.9119 13.6453 12.9154C13.6421 12.9164 13.639 12.9176 13.6357 12.9186L4.36719 15.7434L10.0046 21.389C10.3888 21.7737 11.0118 21.7738 11.396 21.389L22.7485 10.0197C23.1328 9.63486 23.1328 9.011 22.7486 8.6262Z" fill="#B3B6BD"/>
<path d="M14.4234 0.288563C14.2389 0.103875 13.9887 0 13.7278 0C13.4668 0 13.2166 0.103875 13.032 0.288563L1.67925 11.658C1.49474 11.8428 1.39111 12.0934 1.39111 12.3547C1.39107 12.6161 1.49474 12.8667 1.67925 13.0515L2.79025 14.1642L12.5607 11.1861L15.5343 1.40124L14.4234 0.288563Z" fill="#B3B6BD"/>
<path d="M0.972109 15.13L0.288128 15.815C-0.0959647 16.1998 -0.0961051 16.8237 0.288081 17.2084C0.672314 17.5932 1.2954 17.5932 1.67959 17.2085L2.36357 16.5235L0.972109 15.13Z" fill="#B3B6BD"/>
<path d="M3.75512 17.917L0.75203 20.9245C0.367844 21.3092 0.367797 21.9332 0.751984 22.3179C1.13622 22.7027 1.75921 22.7027 2.14349 22.3179L5.14658 19.3105L3.75512 17.917Z" fill="#B3B6BD"/>
<path d="M6.53788 20.704L4.92634 22.318C4.54215 22.7028 4.54211 23.3266 4.92634 23.7114C5.31053 24.0962 5.93352 24.0962 6.31775 23.7114L7.92929 22.0975L6.53788 20.704Z" fill="#B3B6BD"/>
</svg>
